<svg xmlns="http://www.w3.org/2000/svg" viewBox="0 0 108.68 176.13"><defs><style>.cls-1{font-size:18px;font-family:PTSans-Bold, PT Sans;font-weight:700;}.cls-1,.cls-3{fill:#404040;}.cls-2{fill:none;stroke:#404040;stroke-linecap:round;stroke-miterlimit:10;stroke-width:2px;}</style></defs><g id="Layer_2" data-name="Layer 2"><g id="Layer_1-2" data-name="Layer 1"><text class="cls-1" transform="translate(44.25 135.22)">10<tspan x="-16.17" y="18">HURTS</tspan><tspan x="-18.65" y="36">WORST</tspan></text><circle class="cls-2" cx="54.34" cy="54.34" r="53.34"/><circle class="cls-2" cx="66.93" cy="39.14" r="9.14"/><circle class="cls-2" cx="47.75" cy="40.33" r="9.14"/><path class="cls-2" d="M41,46.5S47.34,35.3,54.34,34"/><path class="cls-2" d="M60.79,32.38s8.55,2,13.31,12.41"/><path class="cls-2" d="M25.42,44.53s13.34-.85,22.33-25"/><path class="cls-2" d="M64.63,22.07S69.06,34,88.78,39.14"/><path class="cls-2" d="M34.69,88.21S41,68.14,49.88,68.14H63.43S76,67.84,79.8,88.21"/><path class="cls-2" d="M48.57,52.87s-.51,4.74,4.7,4.74,4,2.63,6,2.88,3.13.09,4.83-2.71c3.38-1.06,2.9-.48,3.38-5.43"/><path class="cls-2" d="M37.54,56.06S31,63.27,35.62,64.35,37.54,56.06,37.54,56.06Z"/><path class="cls-2" d="M43,43.45s-6.46,7.33-1.78,8.33S43,43.45,43,43.45Z"/><path class="cls-2" d="M77.2,61.81s-3.81,9,1,8.47S77.2,61.81,77.2,61.81Z"/><path class="cls-2" d="M75.37,51.28s-3.81,9,.95,8.47S75.37,51.28,75.37,51.28Z"/><circle class="cls-3" cx="64.63" cy="38.33" r="3.39"/><circle class="cls-3" cx="49.88" cy="41.14" r="3.39"/></g></g></svg>