<svg xmlns="http://www.w3.org/2000/svg" viewBox="0 0 108.68 176.13"><defs><style>.cls-1{font-size:18px;font-family:PTSans-Bold, PT Sans;font-weight:700;}.cls-1,.cls-3{fill:#404040;}.cls-2{fill:none;stroke:#404040;stroke-linecap:round;stroke-miterlimit:10;stroke-width:2px;}</style></defs><g id="Layer_2" data-name="Layer 2"><g id="Layer_1-2" data-name="Layer 1"><text class="cls-1" transform="translate(49.25 135.22)">6<tspan x="-23.54" y="18">HURTS </tspan><tspan x="-41.25" y="36">EVEN MORE</tspan></text><circle class="cls-2" cx="54.34" cy="54.34" r="53.34"/><circle class="cls-2" cx="62.93" cy="41.14" r="9.14"/><circle class="cls-2" cx="43.74" cy="40.33" r="9.14"/><path class="cls-2" d="M35.26,43.73s5.59-9.35,14-10.67"/><path class="cls-2" d="M56.61,34.54s10.76-1.37,15.08,9.19"/><path class="cls-2" d="M26.67,31.19S37.59,22.3,48.85,22"/><path class="cls-2" d="M64.15,22c0-.08,12.21,3.55,19.26,11"/><path class="cls-2" d="M26.67,79.49s15.95-14.92,50.21-.85"/><path class="cls-2" d="M43.74,53.26s-4.47,4.59-3.13,6.38,5.27-.51,5.27-.51,1.43-.64,5.51,2.49a6.56,6.56,0,0,0,7.21-1l2.81-1.79a3.83,3.83,0,0,0-.51-4.08"/><circle class="cls-3" cx="60.62" cy="40.33" r="3.39"/><circle class="cls-3" cx="45.88" cy="41.14" r="3.39"/></g></g></svg>