<svg xmlns="http://www.w3.org/2000/svg" viewBox="0 0 108.68 176.13"><defs><style>.cls-1{font-size:18px;font-family:PTSans-Bold, PT Sans;font-weight:700;}.cls-1,.cls-3{fill:#404040;}.cls-2{fill:none;stroke:#404040;stroke-linecap:round;stroke-miterlimit:10;stroke-width:2px;}</style></defs><g id="Layer_2" data-name="Layer 2"><g id="Layer_1-2" data-name="Layer 1"><text class="cls-1" transform="translate(49.35 135.22)">8<tspan x="-21.27" y="18">HURTS</tspan><tspan x="-40.73" y="36">WHOLE LOT</tspan></text><circle class="cls-2" cx="54.34" cy="54.34" r="53.34"/><circle class="cls-2" cx="62.93" cy="41.14" r="9.14"/><circle class="cls-2" cx="43.74" cy="40.33" r="9.14"/><path class="cls-2" d="M36.57,46s8.25-11.3,12.7-12.92"/><path class="cls-2" d="M56.78,34.39s10,6,12.7,13.12"/><path class="cls-2" d="M21,39.52s14-4.59,19.17-21.66"/><path class="cls-2" d="M68.79,17.86S66.74,28.68,84.52,36.33"/><path class="cls-2" d="M35.18,87.75s3.9-14.93,12.62-14.93H61.37s9.16-1,19.15,14.93"/><path class="cls-2" d="M42.49,56.43s.33,7,6.78,4.83c3.2.19,1.61,2.6,6.63,0s8.1.26,7.38-4.87"/><circle class="cls-3" cx="60.62" cy="40.33" r="3.39"/><circle class="cls-3" cx="45.88" cy="41.14" r="3.39"/></g></g></svg>