<svg xmlns="http://www.w3.org/2000/svg" viewBox="0 0 108.68 176.13"><defs><style>.cls-1{font-size:18px;font-family:PTSans-Bold, PT Sans;font-weight:700;}.cls-1,.cls-3{fill:#404040;}.cls-2{fill:none;stroke:#404040;stroke-linecap:round;stroke-miterlimit:10;stroke-width:2px;}</style></defs><g id="Layer_2" data-name="Layer 2"><g id="Layer_1-2" data-name="Layer 1"><text class="cls-1" transform="translate(49.35 135.22)">2<tspan x="-21.27" y="18">HURTS</tspan><tspan x="-37.1" y="36">LITTLE BIT</tspan></text><circle class="cls-2" cx="54.34" cy="54.34" r="53.34"/><circle class="cls-2" cx="46.7" cy="40.25" r="9.1"/><circle class="cls-2" cx="67.26" cy="38.99" r="9.1"/><path class="cls-2" d="M33.82,21.81s4.48-4,16.47-3.17"/><path class="cls-2" d="M64.6,21.27s7.19-4,17.71,1.16"/><path class="cls-2" d="M48.13,52.52s-1.63,5,1.23,5.64a14.3,14.3,0,0,0,4.74.33l2.27.07s3.13,2.57,5.2,0,5.21.94,3.72-5.61"/><path class="cls-2" d="M29.5,72.89s20.66,21.9,48.29,0"/><circle class="cls-3" cx="67.37" cy="38.99" r="3.65"/><circle class="cls-3" cx="49.89" cy="39.65" r="3.65"/></g></g></svg>