<svg xmlns="http://www.w3.org/2000/svg" viewBox="0 0 108.68 176.13"><defs><style>.cls-1{font-size:18px;font-family:PTSans-Bold, PT Sans;font-weight:700;}.cls-1,.cls-3{fill:#404040;}.cls-2{fill:none;stroke:#404040;stroke-linecap:round;stroke-miterlimit:10;stroke-width:2px;}</style></defs><g id="Layer_2" data-name="Layer 2"><g id="Layer_1-2" data-name="Layer 1"><text class="cls-1" transform="translate(49.25 135.22)">4<tspan x="-23.54" y="18">HURTS </tspan><tspan x="-47.45" y="36">LITTLE MORE</tspan></text><circle class="cls-2" cx="54.34" cy="54.34" r="53.34"/><circle class="cls-2" cx="69.1" cy="40.49" r="8.22"/><circle class="cls-2" cx="47.76" cy="40.49" r="8.22"/><path class="cls-2" d="M48.43,55.11s-1.62,5,1.24,5.64a14.3,14.3,0,0,0,4.74.33l2.27.07s3.13,2.58,5.2,0,5.21,1,3.71-5.61"/><path class="cls-2" d="M30,73.58a73,73,0,0,0,21.43,2.8c12.25-.18,27.77-.3,27.77-.3"/><path class="cls-2" d="M31.06,24.45s14.83-8.63,21-2.41"/><path class="cls-2" d="M67.45,24.45s9.35-5.57,15.44,2.17"/><circle class="cls-3" cx="70.02" cy="40.75" r="3.39"/><circle class="cls-3" cx="48.68" cy="40.75" r="3.39"/></g></g></svg>